#tb 0: 1/1000
#media_type 0: video
#codec_id 0: rawvideo
#dimensions 0: 1024x768
#sar 0: 0/1
0,         47,         47,        0,  2359296, 0xb4434e4f
0,         62,         62,        0,  2359296, 0x59cb5027
0,         78,         78,        0,  2359296, 0xe9bc578d
0,        109,        109,        0,  2359296, 0x5d17554f
0,        125,        125,        0,  2359296, 0x6d685457
0,        437,        437,        0,  2359296, 0x13205420
0,        438,        438,        0,  2359296, 0xb8e15116
0,        453,        453,        0,  2359296, 0x2ca55195
0,        469,        469,        0,  2359296, 0x767d1c45
0,        484,        484,        0,  2359296, 0x0af42016
0,        500,        500,        0,  2359296, 0xa2083e69
0,        516,        516,        0,  2359296, 0xb68a1308
0,        531,        531,        0,  2359296, 0x4f334c0e
0,        547,        547,        0,  2359296, 0x98b74e4f
0,        562,        562,        0,  2359296, 0xd9de4e4f
0,        578,        578,        0,  2359296, 0xa17c4e4f
0,        594,        594,        0,  2359296, 0xa49a665d
0,        609,        609,        0,  2359296, 0xf5f87360
0,        781,        781,        0,  2359296, 0x75747360
0,        797,        797,        0,  2359296, 0x745d7360
0,        812,        812,        0,  2359296, 0x33047360
0,        828,        828,        0,  2359296, 0xf19c7360
0,        844,        844,        0,  2359296, 0xb0437360
0,        859,        859,        0,  2359296, 0xaf2c7360
0,        875,        875,        0,  2359296, 0x2ea87360
0,        891,        891,        0,  2359296, 0xee577360
0,        953,        953,        0,  2359296, 0x6dd37360
0,       1078,       1078,        0,  2359296, 0xab327965
0,       1094,       1094,        0,  2359296, 0x5f8677d0
0,       1109,       1109,        0,  2359296, 0x02135eb4
0,       1125,       1125,        0,  2359296, 0x09784e4f
0,       1141,       1141,        0,  2359296, 0xa140a62d
0,       1156,       1156,        0,  2359296, 0xa140a62d
0,       1484,       1484,        0,  2359296, 0xa140a62d
0,       1516,       1516,        0,  2359296, 0xa140a62d
0,       1547,       1547,        0,  2359296, 0xa140a62d
0,       1641,       1641,        0,  2359296, 0xa140a62d
0,       1642,       1642,        0,  2359296, 0xa140a62d
0,       1656,       1656,        0,  2359296, 0xa140a62d
0,       1657,       1657,        0,  2359296, 0xa140a62d
0,       1672,       1672,        0,  2359296, 0xa140a62d
0,       1673,       1673,        0,  2359296, 0x92024e4f
0,       1687,       1687,        0,  2359296, 0xb1754dbe
0,       1688,       1688,        0,  2359296, 0x15ee5eb4
0,       1703,       1703,        0,  2359296, 0xb1d9746e
0,       1719,       1719,        0,  2359296, 0xabe77360
0,       1734,       1734,        0,  2359296, 0xaad07360
0,       1750,       1750,        0,  2359296, 0x2a4c7360
0,       1766,       1766,        0,  2359296, 0x69777360
0,       1781,       1781,        0,  2359296, 0xe8e47360
0,       2328,       2328,        0,  2359296, 0x29357360
0,       3031,       3031,        0,  2359296, 0x69777360
0,       3078,       3078,        0,  2359296, 0xa9b97360
0,       3109,       3109,        0,  2359296, 0xd2697707
0,       3141,       3141,        0,  2359296, 0x22a07965
0,       3156,       3156,        0,  2359296, 0xf9327aa7
0,       3172,       3172,        0,  2359296, 0xa5d277d0
0,       3203,       3203,        0,  2359296, 0x97b6746e
0,       3328,       3328,        0,  2359296, 0x80bb746e
0,       4562,       4562,        0,  2359296, 0x530b719a
0,       4672,       4672,        0,  2359296, 0x4827665d
0,       4703,       4703,        0,  2359296, 0xc48c5eb4
0,       5391,       5391,        0,  2359296, 0xe6465eb4
0,       5578,       5578,        0,  2359296, 0xece455ec
0,       5594,       5594,        0,  2359296, 0xb5344dbe
0,       5609,       5609,        0,  2359296, 0xa140a62d
0,       5625,       5625,        0,  2359296, 0xa140a62d
0,       5641,       5641,        0,  2359296, 0xa140a62d
0,       5642,       5642,        0,  2359296, 0xa140a62d
0,       5656,       5656,        0,  2359296, 0xa140a62d
0,       5672,       5672,        0,  2359296, 0xa140a62d
0,       5703,       5703,        0,  2359296, 0xa140a62d
0,       5750,       5750,        0,  2359296, 0xa140a62d
0,       5766,       5766,        0,  2359296, 0xa140a62d
0,       5781,       5781,        0,  2359296, 0xa140a62d
0,       5797,       5797,        0,  2359296, 0xa140a62d
0,       5812,       5812,        0,  2359296, 0xa140a62d
0,       5875,       5875,        0,  2359296, 0xa140a62d
0,       5922,       5922,        0,  2359296, 0xa140a62d
0,       5984,       5984,        0,  2359296, 0xa140a62d
0,       6031,       6031,        0,  2359296, 0xa140a62d
0,       6047,       6047,        0,  2359296, 0xa140a62d
0,       6062,       6062,        0,  2359296, 0xa140a62d
0,       6406,       6406,        0,  2359296, 0xa140a62d
0,       6453,       6453,        0,  2359296, 0xa140a62d
0,       6469,       6469,        0,  2359296, 0xa140a62d
0,       6484,       6484,        0,  2359296, 0xa140a62d
0,       6500,       6500,        0,  2359296, 0xa140a62d
0,       6516,       6516,        0,  2359296, 0xa140a62d
0,       6531,       6531,        0,  2359296, 0xa140a62d
0,       6547,       6547,        0,  2359296, 0xa140a62d
0,       6562,       6562,        0,  2359296, 0x5c2a4cd9
0,       6578,       6578,        0,  2359296, 0x28f94e4f
0,       6594,       6594,        0,  2359296, 0x9acb4820
0,       6609,       6609,        0,  2359296, 0x9ec716e1
0,       6625,       6625,        0,  2359296, 0xaf5f3fa4
0,       6641,       6641,        0,  2359296, 0x7d633218
0,       6642,       6642,        0,  2359296, 0x34fb2016
0,       6656,       6656,        0,  2359296, 0x61351665
0,       6812,       6812,        0,  2359296, 0xb23c1039
0,       6828,       6828,        0,  2359296, 0x59290d69
0,       6844,       6844,        0,  2359296, 0x639c132d
0,       6859,       6859,        0,  2359296, 0x0b252237
0,       6875,       6875,        0,  2359296, 0xe66f2fc5
0,       6891,       6891,        0,  2359296, 0xa8b33761
0,       6906,       6906,        0,  2359296, 0x81a63f8b
0,       6969,       6969,        0,  2359296, 0x18074843
0,       6984,       6984,        0,  2359296, 0x434a5195
0,       7000,       7000,        0,  2359296, 0x6da15116
0,       7001,       7001,        0,  2359296, 0xca755420
0,       7016,       7016,        0,  2359296, 0xe6fc5457
0,       7017,       7017,        0,  2359296, 0x271d53fd
0,       7031,       7031,        0,  2359296, 0xa15b554f
0,       7281,       7281,        0,  2359296, 0x49f6578d
0,       7282,       7282,        0,  2359296, 0x2c0c4e4f
0,       7297,       7297,        0,  2359296, 0x7e924e4f
0,       7298,       7298,        0,  2359296, 0x32ff4e4f
0,       7312,       7312,        0,  2359296, 0x23ad4e4f
0,       7313,       7313,        0,  2359296, 0x7ddc4e4f
0,       7328,       7328,        0,  2359296, 0xd0624e4f
0,       7329,       7329,        0,  2359296, 0x22f74e4f
0,       7781,       7781,        0,  2359296, 0x49fa4e4f
0,       7797,       7797,        0,  2359296, 0x6a5a5027
0,       7812,       7812,        0,  2359296, 0x9f935027
0,       7828,       7828,        0,  2359296, 0xc5e55027
0,       7844,       7844,        0,  2359296, 0xd4cc5027
0,       8250,       8250,        0,  2359296, 0xd2ab5027
0,       8266,       8266,        0,  2359296, 0x68f04e4f
0,       8281,       8281,        0,  2359296, 0xd0b44e4f
0,       8297,       8297,        0,  2359296, 0xfced4e4f
0,       8298,       8298,        0,  2359296, 0x8b0d4e4f
0,       8312,       8312,        0,  2359296, 0x09db4e4f
0,       8328,       8328,        0,  2359296, 0x4d0f4e4f
0,       8329,       8329,        0,  2359296, 0xad824dbe
0,       8344,       8344,        0,  2359296, 0x9aca4dbe
0,       8345,       8345,        0,  2359296, 0x755a4dbe
0,       8359,       8359,        0,  2359296, 0xc6824d2d
0,       8360,       8360,        0,  2359296, 0x7c344c0e
0,       8375,       8375,        0,  2359296, 0x50f04c0e
0,       8391,       8391,        0,  2359296, 0xfa594c0e
0,       8406,       8406,        0,  2359296, 0x4d494c0e
0,       8422,       8422,        0,  2359296, 0xf6b24c0e
0,       8437,       8437,        0,  2359296, 0xcb6e4c0e
0,       8453,       8453,        0,  2359296, 0xbd024c0e
0,       8516,       8516,        0,  2359296, 0x245b4dbe
0,       8531,       8531,        0,  2359296, 0x47874e4f
0,       8547,       8547,        0,  2359296, 0xdead4e4f
0,       8562,       8562,        0,  2359296, 0x847e4e4f
0,       9344,       9344,        0,  2359296, 0x1a13e47c
0,       9345,       9345,        0,  2359296, 0x46b3e321
0,       9876,       9876,        0,  2359296, 0x76c0e35d
0,       9922,       9922,        0,  2359296, 0xf6d9e519
0,       9938,       9938,        0,  2359296, 0xac0fe4b3
0,       9954,       9954,        0,  2359296, 0x3a3fe424
0,       9955,       9955,        0,  2359296, 0xa97ce1a8
0,       9969,       9969,        0,  2359296, 0x12fae01d
0,       9970,       9970,        0,  2359296, 0x65b4df14
0,       9985,       9985,        0,  2359296, 0x82d0e032
0,       9986,       9986,        0,  2359296, 0xa452e0cf
0,      10001,      10001,        0,  2359296, 0x22d6df37
